# xmcd CD database file
#
# Track frame offsets:
#	180
#	18466
#	39405
#	55622
#	62376
#	76738
#	82538
#	100156
#	113178
#	132123
#	155553
#	167508
#	185880
#	204122
#	222563
#	236685
#
# Disc length: 3420 seconds
#
# Revision: 2
# Processed by: cddbd v1.5PL3 Copyright (c) Steve Scherf et al.
# Submitted via: CDex 1.51
#
DISCID=c20d5a10
DTITLE=Various Artist - Fascinatin' Rhythm
DYEAR=2000
DGENRE=Jazz
TTITLE0=They Can't Take That Away From Me
TTITLE1='S Wonderful
TTITLE2=It Ain't Necessarily So
TTITLE3=Prelude No. 1
TTITLE4=Prelude No. 2
TTITLE5=Prelude No. 3
TTITLE6=But Not For Me
TTITLE7=Somebody Loves Me
TTITLE8=Oh Lady, Be Good
TTITLE9=Someone To Watch Over Me
TTITLE10=Facinating Rhythm
TTITLE11=A Foggy Day
TTITLE12=Embraceable You
TTITLE13=Bess, You Is My Woman
TTITLE14=I Got Plenty O' Nuthin'
TTITLE15=Our Love Is Here To Stay
EXTD=YEAR: 2000
EXTT0=
EXTT1=
EXTT2=
EXTT3=
EXTT4=
EXTT5=
EXTT6=
EXTT7=
EXTT8=
EXTT9=
EXTT10=
EXTT11=
EXTT12=
EXTT13=
EXTT14=
EXTT15=
PLAYORDER=
